<?xml version="1.0" encoding="UTF-8"?>
<svg id="Layer_1" data-name="Layer 1" xmlns="http://www.w3.org/2000/svg" xmlns:xlink="http://www.w3.org/1999/xlink" viewBox="0 0 902.11 259.58">
  <defs>
    <style>
      .cls-1 {
        fill: url(#linear-gradient-2);
      }

      .cls-2 {
        fill: #424242;
      }

      .cls-3 {
        fill: url(#linear-gradient-4);
      }

      .cls-4 {
        fill: url(#linear-gradient-3);
      }

      .cls-5 {
        isolation: isolate;
      }

      .cls-6 {
        fill: url(#linear-gradient);
      }
    </style>
    <linearGradient id="linear-gradient" x1="143.76" y1="56.18" x2="143.76" y2="191.93" gradientUnits="userSpaceOnUse">
      <stop offset="0" stop-color="#5433ff"/>
      <stop offset=".53" stop-color="#20bdff"/>
      <stop offset="1" stop-color="#a5fecb"/>
    </linearGradient>
    <linearGradient id="linear-gradient-2" x1="143.76" y1="57.6" x2="143.76" y2="193.35" xlink:href="#linear-gradient"/>
    <linearGradient id="linear-gradient-3" x1="143.76" y1="59.02" x2="143.76" y2="194.77" xlink:href="#linear-gradient"/>
    <linearGradient id="linear-gradient-4" x1="143.76" y1="60.43" x2="143.76" y2="196.19" xlink:href="#linear-gradient"/>
  </defs>
  <g>
    <path class="cls-6" d="M39.58,81.57l158.28-36.54,50.08,36.54v23.37l-50.08-36.54L39.58,104.94v-23.37Z"/>
    <path class="cls-1" d="M39.58,118.1l158.28-36.54,50.08,36.54v23.37l-50.08-36.54-158.28,36.54v-23.37Z"/>
    <path class="cls-4" d="M39.58,154.64l158.28-36.54,50.08,36.54v23.37l-50.08-36.54-158.28,36.54v-23.37Z"/>
    <path class="cls-3" d="M39.58,191.18l158.28-36.54,50.08,36.54v23.37l-50.08-36.54-158.28,36.54v-23.37Z"/>
  </g>
  <g class="cls-5">
    <path class="cls-2" d="M315.76,136.08c0-30.72,23.57-52.29,55.72-52.29,19.57,0,35,7.14,44.86,20l-21.29,19c-5.86-7.43-12.86-11.72-21.86-11.72-14,0-23.43,9.72-23.43,25s9.43,25,23.43,25c9,0,16-4.29,21.86-11.72l21.29,19c-9.86,12.86-25.29,20-44.86,20-32.15,0-55.72-21.57-55.72-52.29Z"/>
    <path class="cls-2" d="M416.48,146.94c0-23.72,19-40.43,45.43-40.43s45.43,16.72,45.43,40.43-18.86,40.57-45.43,40.57-45.43-16.86-45.43-40.57ZM474.63,146.94c0-10.14-5.57-15.29-12.72-15.29s-12.72,5.14-12.72,15.29,5.57,15.43,12.72,15.43,12.72-5.29,12.72-15.43Z"/>
    <path class="cls-2" d="M511.06,146.94c0-23.72,19-40.43,45.43-40.43s45.43,16.72,45.43,40.43-18.86,40.57-45.43,40.57-45.43-16.86-45.43-40.57ZM569.21,146.94c0-10.14-5.57-15.29-12.72-15.29s-12.72,5.14-12.72,15.29,5.57,15.43,12.72,15.43,12.72-5.29,12.72-15.43Z"/>
    <path class="cls-2" d="M609.79,80.08h32.29v106.01h-32.29v-106.01Z"/>
    <path class="cls-2" d="M650.79,85.22c0-9.29,7.57-16.43,19.43-16.43s19.43,6.57,19.43,15.86c0,9.86-7.57,17-19.43,17s-19.43-7.14-19.43-16.43ZM654.08,107.94h32.29v78.15h-32.29v-78.15Z"/>
    <path class="cls-2" d="M785.37,107.94l-31.43,78.15h-33.43l-31.43-78.15h33.15l15.72,41.86,16.86-41.86h30.57Z"/>
    <path class="cls-2" d="M862.53,144.08v42h-30v-10.29c-3.71,7.86-11.14,11.72-22.14,11.72-19.14,0-29-10.86-29-24.29,0-15.14,11.43-23.57,35.72-23.57h13c-1-6-5.57-9.14-14.72-9.14-7,0-14.86,2.29-20,6.14l-10.29-21.29c9.14-5.71,23-8.86,35.15-8.86,26.86,0,42.29,11.57,42.29,37.57ZM830.24,160.66v-5.43h-8c-6.86,0-9.86,2.29-9.86,6.57,0,3.57,2.86,6.29,7.71,6.29,4.43,0,8.43-2.29,10.14-7.43Z"/>
  </g>
</svg>